PathFileType	4	(X/Y/Z)	/Users/niels/Desktop/University/Third Semester/Perception and Action/Exam/Gymnastics Motion Tracking/Code for Gym Tracking/Analyzed Data/Start Salto/stsalto_good_id16_1_Sports2D/stsalto_good_id16_1_Sports2D_px_person00.trc
DataRate	CameraRate	NumFrames	NumMarkers	Units	OrigDataRate	OrigDataStartFrame	OrigNumFrames
29.837837837837835	29.837837837837835	11	22	m	29.837837837837835	69	185
Frame#	Time	Hip			RHip			RKnee			RAnkle			RBigToe			RSmallToe			RHeel			LHip			LKnee			LAnkle			LBigToe			LSmallToe			LHeel			Neck			Head			Nose			RShoulder			RElbow			RWrist			LShoulder			LElbow			LWrist		
		X1	Y1	Z1	X2	Y2	Z2	X3	Y3	Z3	X4	Y4	Z4	X5	Y5	Z5	X6	Y6	Z6	X7	Y7	Z7	X8	Y8	Z8	X9	Y9	Z9	X10	Y10	Z10	X11	Y11	Z11	X12	Y12	Z12	X13	Y13	Z13	X14	Y14	Z14	X15	Y15	Z15	X16	Y16	Z16	X17	Y17	Z17	X18	Y18	Z18	X19	Y19	Z19	X20	Y20	Z20	X21	Y21	Z21	X22	Y22	Z22
69	2.3125	1.01600808586351	-0.26382489438010626	0.0	1.0191581364829174	-0.2557723433105493	0.0	0.8790969302429337	-0.2487045998835817	0.0	0.7958168454317812	-0.15247419557989664	0.0	0.7204902802548014	-0.1769083999391119	0.0	0.7277840184700308	-0.16329743712559983	0.0	0.7863875553454739	-0.12567146672151602	0.0	1.0106867888786197	-0.26457553633227177	0.0	0.8753434587161221	-0.2500509221374182	0.0	0.7786282798604108	-0.19734353133821875	0.0	0.7096443602557378	-0.21595510740518875	0.0	0.7122924009290907	-0.21301175792844387	0.0	0.7654006490515033	-0.16318767497367084	0.0	0.9655269087750536	-0.4302663375926306	0.0	0.9100905200908033	-0.480300395385549	0.0	0.9159632516634975	-0.43679259565479195	0.0	0.9751418992846301	-0.4112140173912308	0.0	0.964362238917226	-0.3167382790309728	0.0	0.9325684845573734	-0.24300716766512434	0.0	0.9660905576596328	-0.41362705228844715	0.0	0.964495252269681	-0.3194455561751153	0.0	0.9293332999056375	-0.2551455737491869	0.0
70	2.3460144927536235	1.0260924200500396	-0.2653669500390273	0.0	1.0294443018177402	-0.2582122587041176	0.0	0.8894672238010272	-0.24242343364813368	0.0	0.8113823918530805	-0.14840344802318742	0.0	0.7373275536629622	-0.16920899401553027	0.0	0.7450361241532051	-0.15284106920403442	0.0	0.802976978850176	-0.11448014508117685	0.0	1.0217669922124495	-0.265823011287382	0.0	0.8877775113171457	-0.24332197186193008	0.0	0.8011151466077686	-0.17549202558112614	0.0	0.7266131171647013	-0.1971873797064127	0.0	0.7285972720218298	-0.18557339651674473	0.0	0.7873719593438722	-0.13888503565271496	0.0	0.9647895934408843	-0.4282720244116137	0.0	0.9061267601906358	-0.4739848491163847	0.0	0.9165168844567043	-0.4327666933666237	0.0	0.9761824963093751	-0.410361506201075	0.0	0.9733014888953808	-0.3143736348586138	0.0	0.9471680009256196	-0.23871078478918142	0.0	0.9678754799321408	-0.41182766915181973	0.0	0.9733963609792404	-0.3206582754220296	0.0	0.9451990943307648	-0.2537516522072602	0.0
71	2.3795289855072466	1.0364635549626413	-0.2671527637183876	0.0	1.0398344007723177	-0.26137845075517646	0.0	0.9008101618932484	-0.23705184488324885	0.0	0.8272607676499467	-0.14487172097622106	0.0	0.754903478650629	-0.15946082975712353	0.0	0.7636895019658998	-0.14015482271559093	0.0	0.820334065143985	-0.10434564320427332	0.0	1.0327903868015347	-0.26755293075323705	0.0	0.9010107830799043	-0.23715909505518765	0.0	0.8250731424442901	-0.15296423384473254	0.0	0.7444093312978338	-0.17753516062892824	0.0	0.7454585091595558	-0.156718462353158	0.0	0.8103121829373454	-0.11846962367427546	0.0	0.9640681775552203	-0.4258126163251788	0.0	0.9024782983764559	-0.4670168103838911	0.0	0.9167846523918147	-0.4281896174971993	0.0	0.9771352832937279	-0.40972022276178305	0.0	0.9818078453083808	-0.3127545144643018	0.0	0.9603002598574564	-0.23520757043377474	0.0	0.9698470329198908	-0.4100329281954263	0.0	0.9818278916951951	-0.32177744974932904	0.0	0.9585744975452601	-0.25181691792130123	0.0
72	2.4130434782608696	1.0472083019352565	-0.2697611678583047	0.0	1.0504982971608698	-0.2654311047789967	0.0	0.9130255470962821	-0.2322598567970166	0.0	0.844752998315874	-0.14053136316663972	0.0	0.7734648222944277	-0.1483265169597387	0.0	0.7836024455203471	-0.12645598908112535	0.0	0.8395988558774315	-0.09499835107178206	0.0	1.0438698102620252	-0.26986141020471593	0.0	0.9148407180245521	-0.23116397990320464	0.0	0.8489569073086672	-0.132688835321544	0.0	0.7623260855799772	-0.15846556700024844	0.0	0.7624777376980938	-0.13170365165075934	0.0	0.8335478278465691	-0.10172517390495783	0.0	0.9635751672327497	-0.4230093874344906	0.0	0.8994072841961797	-0.4593594035678447	0.0	0.9165602041217616	-0.42258046370610575	0.0	0.9781834283597824	-0.40899229000308446	0.0	0.9899886037329159	-0.3118154635873852	0.0	0.9724831556754449	-0.23263843225348144	0.0	0.9718313368483471	-0.40830709277560845	0.0	0.9903593254406936	-0.3225178179244547	0.0	0.970314666508767	-0.24935168080473802	0.0
73	2.446557971014493	1.0582675308778484	-0.27362660325690297	0.0	1.0614952179005357	-0.2703881873341786	0.0	0.9263515987808516	-0.22732394805626374	0.0	0.866014326437824	-0.13383539890944657	0.0	0.7949640338130433	-0.13493979366489417	0.0	0.8058928018162435	-0.11255844166832996	0.0	0.8629412030273653	-0.08617763790512942	0.0	1.0549161335357278	-0.272941420313071	0.0	0.9291083637571478	-0.2250811646761641	0.0	0.8715349067695246	-0.11770657364203016	0.0	0.780336457058965	-0.14092958136634923	0.0	0.7803889756088643	-0.114987583245962	0.0	0.8571144606958632	-0.0886813145354345	0.0	0.9636049199255717	-0.4197894586260319	0.0	0.8971970527360852	-0.4509963360333969	0.0	0.9162551921849851	-0.4155579721262368	0.0	0.9793632713212213	-0.40760474028661975	0.0	0.9979937736090275	-0.31138986565510207	0.0	0.9843256574713071	-0.23115608338901508	0.0	0.9738774269367891	-0.4065899280245869	0.0	0.9990417307360746	-0.3227800707085672	0.0	0.9815501175655411	-0.2467904709997839	0.0
74	2.480072463768116	1.0695102478615468	-0.2789444618245172	0.0	1.072804477720327	-0.27624063230846635	0.0	0.9412158889332244	-0.2218631964575238	0.0	0.8936554389943784	-0.12370927341509041	0.0	0.8219266205394351	-0.11753692645281189	0.0	0.8323374990433652	-0.09793624931472039	0.0	0.892923173575281	-0.07810948409134134	0.0	1.065747348792337	-0.2769204843777831	0.0	0.943851043015387	-0.21895447924474826	0.0	0.893044253445439	-0.10849520634281987	0.0	0.7993925841582948	-0.12483161946934768	0.0	0.8014287209472646	-0.10608409404479917	0.0	0.8821936756345844	-0.0798007586782856	0.0	0.9643067477988447	-0.4161347018594747	0.0	0.8958635027915848	-0.4420295063350025	0.0	0.9166101876341524	-0.40719975108316153	0.0	0.9806942905084686	-0.4052932880255034	0.0	1.0059838719309095	-0.31129777223634303	0.0	0.9962425360308687	-0.23075055917567194	0.0	0.9760686793135669	-0.40471117663922795	0.0	1.0074812375897764	-0.32251092527320074	0.0	0.9930662211472482	-0.2445561717648363	0.0
75	2.5135869565217392	1.080696013260391	-0.2855739652375154	0.0	1.0842264697195179	-0.28295096230924255	0.0	0.9577465789743581	-0.21620968189074077	0.0	0.9291479494341827	-0.11089896335216874	0.0	0.8545979501153685	-0.09634286395083737	0.0	0.8628950295419416	-0.08199230689177314	0.0	0.9303409242756662	-0.07159992259601833	0.0	1.076201305676185	-0.28174225029926503	0.0	0.9591687338303543	-0.21310527448241803	0.0	0.9148226003470517	-0.10299279729452944	0.0	0.8207464525097248	-0.10947881939111721	0.0	0.8285029570187848	-0.10030207158670264	0.0	0.9106875733802922	-0.075009977231285	0.0	0.9656460648248031	-0.41218082197679845	0.0	0.8952314132358435	-0.4326714179457319	0.0	0.9182334038791788	-0.3980953212832267	0.0	0.982199190638551	-0.40225725000497803	0.0	1.0139480271221275	-0.31144304257937006	0.0	1.0082709209354563	-0.23126374032538535	0.0	0.9784007569868397	-0.402553056091756	0.0	1.0150932290175199	-0.3216686978332295	0.0	1.005032257268592	-0.24294970413876701	0.0
76	2.5471014492753628	1.0915040057442988	-0.2930019018931382	0.0	1.0953932981013548	-0.29034408426458014	0.0	0.9755479131525648	-0.21103703249116534	0.0	0.970689815142673	-0.0979656406487718	0.0	0.8896167748835736	-0.07464351047213494	0.0	0.8943933533995425	-0.06607801282380849	0.0	0.9726884972814704	-0.06737116494315423	0.0	1.0861930225930925	-0.28728766118334415	0.0	0.9750428921307343	-0.20795162428571007	0.0	0.9385657096314599	-0.09890350770584715	0.0	0.8450613403781178	-0.0943430350338534	0.0	0.8636659451911352	-0.09334899250546058	0.0	0.9439057198019776	-0.07330989301777222	0.0	0.9675651192293406	-0.4080859921045408	0.0	0.8952233429376376	-0.42304332919060134	0.0	0.9212592671064903	-0.3889033819822559	0.0	0.9839222671474848	-0.39874254903736545	0.0	1.0216488616067956	-0.31179640317712687	0.0	1.0200847155542596	-0.23242489753508017	0.0	0.9808909297568827	-0.4002396709136159	0.0	1.0215164022838943	-0.3204012700213371	0.0	1.0170646165602155	-0.24207368557544648	0.0
77	2.580615942028986	1.1015721687001714	-0.30047957324826563	0.0	1.105868154705957	-0.2980255020940023	0.0	0.9938302952733545	-0.2069319249300695	0.0	1.0134554289289384	-0.08785449218338684	0.0	0.9230650026260152	-0.056816007516933255	0.0	0.9235816975470547	-0.053173615937543085	0.0	1.015231845901066	-0.0656268881797628	0.0	1.095594655819681	-0.29341012068478006	0.0	0.9912584883488227	-0.2038678984806262	0.0	0.965727078771046	-0.09506466672579808	0.0	0.8719785618810003	-0.07955939046674536	0.0	0.9065481036034436	-0.08397461149815906	0.0	0.9805710782986548	-0.07328290273706306	0.0	0.9700418329485061	-0.4039663544945065	0.0	0.8959220851311763	-0.41314342364169954	0.0	0.9254056971647182	-0.38004844659615067	0.0	0.9859210607863544	-0.3948095130893932	0.0	1.0287714175490332	-0.31231627628332165	0.0	1.0311488176320616	-0.2339214531761532	0.0	0.9836168484807001	-0.39806753358322733	0.0	1.0268279131179574	-0.3190829891252445	0.0	1.0284322175442555	-0.2418781427704589	0.0
78	2.614130434782609	1.1105512490173846	-0.30737469160258984	0.0	1.1152700875184758	-0.3054496497817772	0.0	1.011967964865673	-0.20421151057240253	0.0	1.0527652069426718	-0.08212189130551543	0.0	0.9554840555227057	-0.04505678753643171	0.0	0.9523468949272818	-0.04499551637312375	0.0	1.0540008887939694	-0.06614362214026188	0.0	1.1041043183314685	-0.2998438491283495	0.0	1.0074802134357372	-0.20114660503513662	0.0	0.995390814845713	-0.09142568349682416	0.0	0.9002653961149011	-0.06601551900593405	0.0	0.9526535490750749	-0.07333038375915757	0.0	1.0155460161903953	-0.07397760030403476	0.0	0.9729893072011335	-0.3999258790538759	0.0	0.8973634225980954	-0.4030566912002759	0.0	0.9303417513553213	-0.3717441267484807	0.0	0.988177370107699	-0.39054952225871	0.0	1.0351548519018794	-0.31290240365607214	0.0	1.0409701142291368	-0.23555213793682467	0.0	0.9865795377963941	-0.3961501400167854	0.0	1.0314476684192548	-0.3181324945666682	0.0	1.038386829922209	-0.24234302376330466	0.0
79	2.647644927536232	1.1182737411022179	-0.31349067323448737	0.0	1.1234017624068824	-0.3121588666933876	0.0	1.0300175183833566	-0.20289309457300828	0.0	1.0863206814075423	-0.08051221965023704	0.0	0.9914608831384492	-0.038550432572961986	0.0	0.9874558698780066	-0.04086125219922008	0.0	1.0875049569338546	-0.06852948522841765	0.0	1.1114753505687545	-0.3062286801832644	0.0	1.0235300254633926	-0.19996589942597368	0.0	1.0229156302079838	-0.08863107885298713	0.0	0.9284946199307625	-0.05488679395543129	0.0	0.9930752806460316	-0.0633783235615826	0.0	1.0422481170011084	-0.07526558364335574	0.0	0.9762430298920096	-0.3959675856621294	0.0	0.8993986861212371	-0.39305316553682507	0.0	0.9359503714335912	-0.3640464744478195	0.0	0.990570865149495	-0.3862457157286937	0.0	1.040856560517395	-0.31344995553414495	0.0	1.0493485020772209	-0.23730971515391266	0.0	0.9896542588900996	-0.3941565850677637	0.0	1.0359075151458483	-0.3178367294608227	0.0	1.0465752808496258	-0.24350037305496647	0.0
